<?xml version="1.0" encoding="UTF-8"?>
<svg id="Capa_2" data-name="Capa 2" xmlns="http://www.w3.org/2000/svg" viewBox="0 0 866.03 1000">
  <defs>
    <style>
      .cls-1 {
        fill: #f2f9ff;
        stroke-width: 0px;
      }
    </style>
  </defs>
  <g id="Capa_1-2" data-name="Capa 1">
    <g>
      <polygon class="cls-1" points="750.69 816.58 433.01 1000 115.32 816.58 246.88 816.58 433.01 924.05 619.15 816.58 750.69 816.58"/>
      <path class="cls-1" d="M354.96,645.15h131.54l100.39-57.95v1.19h213.21v56.93h65.78v-295.14l-510.92,294.98ZM698.76,522.61l101.35-58.51v58.51h-101.35Z"/>
      <polygon class="cls-1" points="661.5 268.85 249.82 506.54 188.1 399.63 64.67 613.44 64.66 613.44 .15 650.7 .15 249.92 .16 249.9 65.95 287.88 65.93 287.9 65.93 479.7 188.1 268.09 273.89 416.69 595.73 230.88 661.5 268.85"/>
      <polygon class="cls-1" points="866.03 288.4 156.63 697.97 866.03 697.97 866.03 750 842.21 763.75 23.81 763.75 0 750 0 712.45 767.72 269.2 433.01 75.95 118.76 257.39 52.99 219.41 433.01 0 866.03 250 866.03 288.4"/>
    </g>
  </g>
</svg>